<svg width="1051" height="475" viewBox="0 0 1051 475" fill="none" xmlns="http://www.w3.org/2000/svg">
<path d="M71.3526 142.344C150.809 214.747 119.865 235.595 2 256.389C111.866 266.622 114.798 302.704 71.3526 392.237C156.006 342.511 160.467 367.651 166.712 414.599C220.862 379.372 212.099 411.105 238.022 449.26C300.692 401.664 361.627 374.348 377.846 439.197C412.276 391.355 494.52 419.01 526.059 461C560.851 398.295 648.442 397.233 665.324 439.197C689.478 377.071 746.422 392.237 809.062 449.26C809.062 392.237 864.136 388.227 965.106 392.237C919.498 322.747 955.156 303.282 1049 278.192C926.157 268.266 938.17 242.08 1031.66 177.005C936 194.779 900.717 128.723 965.106 55.6922C886.524 110.143 821.896 95.1602 838.705 28.299C772.55 97.235 738.381 108.951 685.458 55.6922C601.43 108.015 572.398 99.8109 554.024 16C454.181 114.288 404.626 111.869 326.391 16C298.046 107.095 263.821 104.499 187.686 55.6922C194.874 145.778 170.454 165.194 71.3526 142.344Z" fill="#130303" stroke="black" stroke-width="15"/>
<path d="M349.997 330.783L348.347 332.8C347.125 334.022 345.047 335.611 342.114 337.567C339.302 339.4 335.88 341.294 331.847 343.25C327.936 345.083 322.68 346.611 316.08 347.833C309.48 349.178 302.391 349.85 294.814 349.85C278.802 349.85 265.114 347.222 253.747 341.967C242.38 336.589 233.458 328.828 226.98 318.683C220.625 308.417 216.041 296.867 213.23 284.033C210.419 271.078 209.014 256.106 209.014 239.117C209.014 221.028 210.419 205.444 213.23 192.367C216.041 179.167 220.686 167.617 227.164 157.717C233.764 147.694 242.808 140.178 254.297 135.167C265.786 130.156 279.78 127.65 296.28 127.65C303.858 127.65 310.947 128.322 317.547 129.667C324.269 131.011 329.525 132.539 333.314 134.25C337.225 135.961 340.708 137.917 343.764 140.117C346.941 142.317 348.897 143.844 349.63 144.7C350.486 145.556 351.097 146.228 351.464 146.717L348.714 188.883H320.847L311.314 167.067C309.114 166.456 307.28 166.15 305.814 166.15C297.625 166.15 291.33 168.044 286.93 171.833C282.53 175.5 279.169 182.772 276.847 193.65C274.525 204.406 273.364 219.928 273.364 240.217C273.364 252.317 274.097 262.889 275.564 271.933C277.152 280.978 279.047 287.944 281.247 292.833C283.447 297.6 286.075 301.45 289.13 304.383C292.186 307.317 294.936 309.211 297.38 310.067C299.825 310.8 302.452 311.167 305.264 311.167C311.497 311.167 318.036 310.433 324.88 308.967C331.725 307.378 337.347 304.994 341.747 301.817L349.997 330.783ZM426.649 274.5V346H365.782V131.133H389.982C395.849 131.133 404.588 130.889 416.199 130.4C427.81 129.789 437.404 129.483 444.982 129.483C471.382 129.483 491.06 135.289 504.015 146.9C517.093 158.511 523.632 176.294 523.632 200.25C523.632 214.428 520.515 227.017 514.282 238.017C508.171 249.017 500.043 257.756 489.899 264.233C495.399 265.578 500.104 268.694 504.015 273.583C508.049 278.472 511.165 284.278 513.365 291C515.565 297.6 517.46 304.322 519.049 311.167C520.76 317.889 522.654 324.55 524.732 331.15C526.932 337.75 529.315 342.7 531.882 346H464.232C462.888 344.289 461.849 339.522 461.115 331.7C460.382 323.756 459.343 314.283 457.999 303.283C456.777 292.161 455.004 282.872 452.682 275.417C452.438 275.417 452.132 275.417 451.765 275.417C449.443 275.417 446.938 275.417 444.249 275.417C441.682 275.294 439.421 275.172 437.465 275.05C435.51 274.928 433.432 274.806 431.232 274.683C429.154 274.561 427.627 274.5 426.649 274.5ZM426.649 240.4H432.515C435.571 240.4 438.138 240.278 440.215 240.033C442.293 239.789 444.554 239.361 446.999 238.75C449.565 238.017 451.643 236.917 453.232 235.45C454.943 233.983 456.532 232.089 457.999 229.767C459.465 227.444 460.565 224.45 461.299 220.783C462.032 217.117 462.399 212.839 462.399 207.95V193.467C462.399 182.833 459.588 175.439 453.965 171.283C448.465 167.006 440.521 164.867 430.132 164.867H426.649V240.4ZM544.128 346V131.133H606.645V346H544.128ZM665.764 346V179.717H622.864V131.133H770.631V179.717H727.731V346H665.764ZM824.105 349.483L794.039 319.233V312.817L824.105 282.75H831.072L862.422 312.817V319.233L831.072 349.483H824.105ZM813.839 266.067C813.594 250.056 811.944 235.45 808.889 222.25C805.955 209.05 800.883 192.672 793.672 173.117C791.961 167.739 791.105 161.994 791.105 155.883C791.105 144.15 794.222 135.35 800.455 129.483C806.811 123.494 815.978 120.5 827.955 120.5C840.544 120.5 849.772 123.739 855.639 130.217C861.505 136.572 864.439 145.372 864.439 156.617C864.439 162.606 863.644 168.106 862.055 173.117C854.844 192.672 849.711 209.05 846.655 222.25C843.722 235.45 842.133 250.056 841.889 266.067H813.839Z" fill="#B7FFB9"/>
</svg>
