<svg width="936" height="444" viewBox="0 0 936 444" fill="none" xmlns="http://www.w3.org/2000/svg">
<path d="M102.214 83.8779C58.7159 62.636 13.7813 135.642 38.8007 169.147C-9.71694 188.688 -8.14371 243.683 38.8007 262.13C1.85452 299.143 41.2004 373.228 85.075 364.539C91.1913 415.995 169.291 434.35 207.616 406.531C289.146 447.613 319.769 435.117 364.435 389.391C417.394 450.67 449.162 452.054 508.828 406.531C590.786 455.179 613.371 449.719 699.495 406.531C763.859 422.574 819.896 414.159 865.74 364.539C915 364.539 935.5 278.5 887.163 246.704C951.848 233.575 944.13 153.871 887.163 144.295C911.264 112.708 870.285 64.9768 817.323 74.4512C809.085 27.0374 731.07 14.042 699.495 45.3139C692.184 5.33855 593.239 13.5322 587.665 45.3139C580.484 -8.40156 490.042 -13.6968 457.412 45.3139C446.5 12.6369 386.041 -15.6478 364.435 45.3139C326.419 -3.38058 215.225 -13.3729 189.192 32.8877C154.574 4.18689 85.0808 49.5876 102.214 83.8779Z" fill="black" stroke="black" stroke-width="5"/>
<path d="M182.692 329H124.392V131.367L115.408 114.133H182.875L216.608 183.8L248.875 253.283L239.892 171.7V114.133H298.375V329H242.458L198.825 244.117L171.875 190.95L182.692 261.35V329ZM428.539 329L420.289 294.717H368.222L361.256 329H307.356L363.272 128.983L358.872 114.133H434.589L495.822 329H428.539ZM391.872 177.2L375.739 257.317H411.306L391.872 177.2ZM537.154 329V162.717H494.254V114.133H642.021V162.717H599.121V329H537.154ZM756.246 329V186L723.062 189.667V150.617C729.907 149.639 735.651 148.539 740.296 147.317C744.94 146.094 749.829 144.2 754.962 141.633C760.096 139.067 764.496 135.522 768.162 131C771.829 126.478 774.824 120.917 777.146 114.317H817.662V329H756.246Z" fill="#E4C77C"/>
</svg>
