<svg width="574" height="519" viewBox="0 0 574 519" fill="none" xmlns="http://www.w3.org/2000/svg">
<g clip-path="url(#clip0_336_256)">
<path d="M373 315H209V370H373V315Z" fill="black"/>
<path d="M41.0757 120.633C80.0737 412.916 233.42 433.701 290.872 433.785C349.97 433.872 505.976 428.883 526.611 119.892C529.593 75.2434 542.128 362.215 291.061 361.811C44.7433 361.415 41.0757 120.633 41.0757 120.633Z" fill="white" stroke="black" stroke-width="18"/>
<path d="M289 370H283V434H289V370Z" fill="black"/>
<path d="M259 367H253V431H259V367Z" fill="black"/>
<path d="M319 367H313V431H319V367Z" fill="black"/>
<path d="M349 362H343V426H349V362Z" fill="black"/>
<path d="M379 350H373V414H379V350Z" fill="black"/>
<path d="M199 350H193V414H199V350Z" fill="black"/>
<path d="M409 340H403V404H409V340Z" fill="black"/>
<path d="M439 314H433V378H439V314Z" fill="black"/>
<path d="M139 314H133V370H139V314Z" fill="black"/>
<path d="M469 288H463V352H469V288Z" fill="black"/>
<path d="M229 362H223V426H229V362Z" fill="black"/>
<path d="M169 340H163V399H169V340Z" fill="black"/>
<path d="M0 0H80V8.56854V518H0V0Z" fill="black"/>
<path d="M32 56.5685L80 8.56854L88.5685 0L343.127 254.558L286.558 311.127L32 56.5685Z" fill="black"/>
<path d="M88.5685 9.52998e-07L80 0V8.56854L88.5685 9.52998e-07Z" fill="black"/>
<path d="M494 0H574V518H494V8.8457V0Z" fill="black"/>
<path d="M485.154 0L494 8.8457L541.723 56.5685L287.164 311.127L230.596 254.558L485.154 0Z" fill="black"/>
<path d="M494 0H485.154L494 8.8457V0Z" fill="black"/>
<path d="M287 311.174C160 387.174 43.5001 280.174 53.0001 79.1743L287 311.174Z" fill="white" stroke="black" stroke-width="18"/>
<path d="M287 311.174C414 387.174 530.5 280.174 521 79.1743L287 311.174Z" fill="white" stroke="black" stroke-width="18"/>
<path d="M174.841 236.495C173.776 224.204 175.378 210.921 179.825 195.059L274.014 297.796C257.669 304.282 239.058 304.082 222.884 299.268C206.48 294.385 192.663 284.783 186.249 272.706C179.777 260.518 175.926 249.004 174.841 236.495Z" fill="black" stroke="black"/>
<path d="M370 215.674C404 353.674 525 202.674 481 113.174L370 215.674Z" fill="black" stroke="black"/>
</g>
<defs>
<clipPath id="clip0_336_256">
<rect width="574" height="519" fill="white"/>
</clipPath>
</defs>
</svg>
