<svg xmlns="http://www.w3.org/2000/svg" width="24" height="24" viewBox="0 0 512 512"><path fill="currentColor" d="M352 96h64c17.7 0 32 14.3 32 32v256c0 17.7-14.3 32-32 32h-64c-17.7 0-32 14.3-32 32s14.3 32 32 32h64c53 0 96-43 96-96V128c0-53-43-96-96-96h-64c-17.7 0-32 14.3-32 32s14.3 32 32 32m-9.4 182.6c12.5-12.5 12.5-32.8 0-45.3l-128-128c-12.5-12.5-32.8-12.5-45.3 0s-12.5 32.8 0 45.3l73.4 73.4H32c-17.7 0-32 14.3-32 32s14.3 32 32 32h210.7l-73.4 73.4c-12.5 12.5-12.5 32.8 0 45.3s32.8 12.5 45.3 0l128-128z"/></svg>
