<svg xmlns="http://www.w3.org/2000/svg" width="24" height="24" viewBox="0 0 56 56"><path fill="currentColor" d="M41.586 43.218a2.8 2.8 0 0 0-.712-.201q-.382-.051-.736-.107c-5.193-.826-5.715-2.672-6.392-4.087c-.55-.238-.82-.429-1.103-1.408c-.121-.418-.332-2.275-.243-2.999c.428-.4.751-1.417.892-1.889c.379-1.263.47-1.57.831-3.254c.052-.24.188-.338.299-.379c.335-.121.412-.391.523-.591c.26-.458.036-.663.441-1.78c.519-1.27.6-2.579.206-2.954c-.266-.237-.429-.06-.56-.012c-.087.034-.019-.184.06-.495c.31-1.28.312-2.364.396-3.676c.068-1.062-.003-2.03-.135-2.63c-.126-.126-.449-1.518-.819-2.333c-.633-1.399-2.528-1.615-3.179-1.896c-1.546-.646-3.48-1.524-5.772-.534c-1.02.44-2.378.483-3.856 2.146c-.35.392-.974.056-1.671 1.578c-.708 1.49-.745 2.473-.584 3.54l-.049.002s.018 2.552.331 3.831c.077.313.143.53.057.497c-.13-.048-.309-.202-.575.036c-.395.375-.186 1.63.332 2.9c.408 1.117.136 1.45.57 2.037c.154.21.299.32.465.39c.11.044.268.059.341.291c.477 1.732.565 2.264 1.062 3.293c.214.445.455 1.559.898 1.991c.074.61-.001 2.366-.098 2.89c-.154.823-.443 1.061-1.219 1.408c-.421 1.37-1.54 2.612-6.218 4.047q-.24.074-.49.147q-.262.087-.45.214A20.32 20.32 0 0 0 28 48.4c5.218 0 9.979-1.96 13.586-5.182M28 52C14.745 52 4 41.255 4 28S14.745 4 28 4s24 10.745 24 24s-10.745 24-24 24"/></svg>
