<svg xmlns="http://www.w3.org/2000/svg" viewBox="0 0 24 24"><g fill="none" fill-rule="evenodd"><path d="m12.594 23.258l-.012.002l-.071.035l-.02.004l-.014-.004l-.071-.036q-.016-.004-.024.006l-.004.01l-.017.428l.005.02l.01.013l.104.074l.015.004l.012-.004l.104-.074l.012-.016l.004-.017l-.017-.427q-.004-.016-.016-.018m.264-.113l-.014.002l-.184.093l-.01.01l-.003.011l.018.43l.005.012l.008.008l.201.092q.019.005.029-.008l.004-.014l-.034-.614q-.005-.019-.02-.022m-.715.002a.02.02 0 0 0-.027.006l-.006.014l-.034.614q.001.018.017.024l.015-.002l.201-.093l.01-.008l.003-.011l.018-.43l-.003-.012l-.01-.01z"/><path fill="currentColor" d="M11 2a5 5 0 1 0 0 10a5 5 0 0 0 0-10m0 11c-2.395 0-4.575.694-6.178 1.672c-.8.488-1.484 1.064-1.978 1.69C2.358 16.976 2 17.713 2 18.5c0 .845.411 1.511 1.003 1.986c.56.45 1.299.748 2.084.956C6.665 21.859 8.771 22 11 22q.346 0 .685-.005a1 1 0 0 0 .89-1.428A6 6 0 0 1 12 18c0-1.252.383-2.412 1.037-3.373a1 1 0 0 0-.72-1.557Q11.671 13 11 13m5.586 2.172a1 1 0 0 0-1.414 1.414L16.586 18l-1.414 1.414a1 1 0 1 0 1.414 1.414L18 19.414l1.414 1.414a1 1 0 1 0 1.414-1.414L19.414 18l1.414-1.414a1 1 0 0 0-1.414-1.414L18 16.586z"/></g></svg>
